<svg xmlns="http://www.w3.org/2000/svg" viewBox="0 0 200 176" role="img" aria-label="Drivit">
  <style>
    @import url('https://fonts.googleapis.com/css2?family=Quicksand:wght@600&display=swap');
    .wm{fill:#3A2A20;font-family:'Quicksand','Trebuchet MS',sans-serif;font-weight:600;font-size:38px;letter-spacing:2px}
    @media (prefers-color-scheme:dark){.wm{fill:#F3E7D8}}
  </style>
  <g transform="translate(50,6)">
    <clipPath id="d3clip"><circle cx="50" cy="50" r="43"/></clipPath>
    <g clip-path="url(#d3clip)">
      <rect x="0" y="0" width="100" height="100" fill="#FAF3EA"/>
      <circle cx="50" cy="42" r="14" fill="#C9A15C"/>
      <path d="M-4 72 C16 52 30 57 50 63 C69 57 84 52 104 72 L104 104 L-4 104Z" fill="#C4694A"/>
      <path d="M2 80 C22 74 32 84 50 80 C68 76 80 84 98 80" fill="none" stroke="#E8DCC8" stroke-width="3.4" stroke-linecap="round"/>
      <path d="M2 90 C22 84 34 93 50 89 C67 85 80 92 98 89" fill="none" stroke="#E8DCC8" stroke-width="3.4" stroke-linecap="round"/>
    </g>
    <circle cx="50" cy="50" r="45" fill="none" stroke="#C9A15C" stroke-width="2.5"/>
  </g>
  <text class="wm" x="100" y="152" text-anchor="middle">Drivit</text>
</svg>
