<svg xmlns="http://www.w3.org/2000/svg" viewBox="0 0 200 176" role="img" aria-label="Drivit">
  <style>
    @import url('https://fonts.googleapis.com/css2?family=Quicksand:wght@600&display=swap');
    .wm{fill:#3A2A20;font-family:'Quicksand','Trebuchet MS',sans-serif;font-weight:600;font-size:38px;letter-spacing:2px}
    @media (prefers-color-scheme:dark){.wm{fill:#F3E7D8}}
  </style>
  <g transform="translate(50,6)">
    <circle cx="50" cy="50" r="45" fill="none" stroke="#C9A15C" stroke-width="2.5"/>
    <path d="M50 71 C40 57 40 34 50 24 C60 34 60 57 50 71Z" fill="#E8DCC8" transform="rotate(-63 50 71)"/>
    <path d="M50 71 C40 57 40 34 50 24 C60 34 60 57 50 71Z" fill="#E8DCC8" transform="rotate(63 50 71)"/>
    <path d="M50 71 C40 57 40 34 50 24 C60 34 60 57 50 71Z" fill="#C4694A" transform="rotate(-33 50 71)"/>
    <path d="M50 71 C40 57 40 34 50 24 C60 34 60 57 50 71Z" fill="#C4694A" transform="rotate(33 50 71)"/>
    <path d="M50 71 C41 55 41 31 50 21 C59 31 59 55 50 71Z" fill="#B85A3E"/>
    <circle cx="50" cy="67" r="4.5" fill="#C9A15C"/>
  </g>
  <text class="wm" x="100" y="152" text-anchor="middle">Drivit</text>
</svg>
